# xmcd CD database file
# 
# Track frame offsets:
# 	150
# 	10035
# 	20482
# 	30750
# 	39825
# 	50717
# 	61422
# 	72232
# 	81527
# 	90622
# 	99542
# 	111007
# 	121557
# 	131165
# 	141417
# 	151130
# 	161070
# 	171272
# 	182152
# 	192172
# 	203605
# 	214347
# 	224387
# 	233990
# 	242937
# 	253880
# 	263777
# 	275155
# 	285847
# 	295137
# 
# Disc length: 4087 seconds
# 
# Submitted via: Nero 6, 6, 1, 15
# 
# Revision: 0
# Processed by: cddbd v1.5.2PL0 Copyright (c) Steve Scherf et al.
#
DISCID=b90ff51e
DTITLE=Various Artist - Gonna Shake This Shack Tonight!
DYEAR=1900
DGENRE=
TTITLE0=Charline Arthur - Burn That Candle[Charline Arthur]
TTITLE1=Hawkshaw Hawkins - Ko Ko Mo (I Love You So)[Hawkshaw Hawkins]
TTITLE2=Terry Fell - Truck Driving Man[Terry Fell]
TTITLE3=Melvin Endsley - I Like Your Kind Of Love[Melvin Endsley]
TTITLE4=Johnnie Lee Wills and his Boys - Blackberry Boogie[Johnnie Lee Wills an
TTITLE4=d his Boys]
TTITLE5=Lawton Williams - Moon Joe[Lawton Williams]
TTITLE6=Charline Arthur - Welcome To The Club[Charline Arthur]
TTITLE7=Hawkshaw Hawkins - Ling Ting Tong[Hawkshaw Hawkins]
TTITLE8=Terry Fell - I Can Hear You Cluckin'[Terry Fell]
TTITLE9=Eddy Arnold - Hep Cat Baby[Eddy Arnold]
TTITLE10=Davis Sisters - Rock-A-Bye Baby[Davis Sisters]
TTITLE11=Jack Turner and his Granger County Gang - Hound Dog[Jack Turner and hi
TTITLE11=s Granger County Gang]
TTITLE12=Curtis Gordon - Caffeine And Nicotine[Curtis Gordon]
TTITLE13=Johnnie and Jack - So Lovely Baby[Johnnie and Jack]
TTITLE14=Hawkshaw Hawkins - If It Ain't On The Menu[Hawkshaw Hawkins]
TTITLE15=Charline Arthur - Just Look, Don't Touch, He's Mine[Charline Arthur]
TTITLE16=Hawkshaw Hawkins - Waitin' For My Baby (Rock, Rock)[Hawkshaw Hawkins]
TTITLE17=Terry Fell - That's What I Like[Terry Fell]
TTITLE18=Melvin Endsley - Keep A-Loving' me, Baby[Melvin Endsley]
TTITLE19=Johnnie Lee Wills and his Boys - Oo Oooh Daddy[Johnnie Lee Wills and h
TTITLE19=is Boys]
TTITLE20=Lawton Williams - Lightning Jones[Lawton Williams]
TTITLE21=Charline Arthur - Honey Bun[Charline Arthur]
TTITLE22=Hawkshaw Hawkins - It Would Be A Doggone Lie[Hawkshaw Hawkins]
TTITLE23=Terry Fell - Fa-So-La[Terry Fell]
TTITLE24=Lee Bell - Beatin' Out The Boogie (On The Mississippi Mud)[Lee Bell]
TTITLE25=The Davis Sisters - The Christmas Boogie[The Davis Sisters]
TTITLE26=Jack Turner - Walkin' A Chalk Line[Jack Turner]
TTITLE27=Hank Penny - Hadacillin Boogie[Hank Penny]
TTITLE28=Johnnie and Jack - Move It On Over[Johnnie and Jack]
TTITLE29=Martha Carson - Satisfied[Martha Carson]
EXTD=
EXTT0=
EXTT1=
EXTT2=
EXTT3=
EXTT4=
EXTT5=
EXTT6=
EXTT7=
EXTT8=
EXTT9=
EXTT10=
EXTT11=
EXTT12=
EXTT13=
EXTT14=
EXTT15=
EXTT16=
EXTT17=
EXTT18=
EXTT19=
EXTT20=
EXTT21=
EXTT22=
EXTT23=
EXTT24=
EXTT25=
EXTT26=
EXTT27=
EXTT28=
EXTT29=
PLAYORDER=
